
                          Swedish Hardsub

 
http://www.imdb.com/title/tt1935929/


General
Complete name                       : Tooth.Fairy.2.2012.DVDRip.SweSub.Xvid.avi
Format                              : AVI
Format/Info                         : Audio Video Interleave
File size                           : 699 MiB
Duration                            : 1h 26mn

Video
ID                                  : 0
Format                              : MPEG-4 Visual
Format profile                      : Advanced Simple@L5
Format settings, BVOP               : 2
Format settings, QPel               : No
Format settings, GMC                : No warppoints
Format settings, Matrix             : Default (H.263)
Codec ID                            : XVID
Codec ID/Hint                       : XviD
Duration                            : 1h 26mn
Bit rate                            : 986 Kbps
Width                               : 656 pixels
Height                              : 352 pixels
Display aspect ratio                : 1.85:1
Frame rate                          : 25.000 fps
Color space                         : YUV
Chroma subsampling                  : 4:2:0
Bit depth                           : 8 bits
Scan type                           : Progressive
Compression mode                    : Lossy
Bits/(Pixel*Frame)                  : 0.171
Stream size                         : 611 MiB (87%)
Writing library                     : XviD 73

Audio
ID                                  : 1
Format                              : MPEG Audio
Format version                      : Version 1
Format profile                      : Layer 3
Mode                                : Joint stereo
Mode extension                      : MS Stereo
Codec ID                            : 55
Codec ID/Hint                       : MP3
Duration                            : 1h 26mn
Bit rate mode                       : Variable
Bit rate                            : 128 Kbps
Channel(s)                          : 2 channels
Sampling rate                       : 48.0 KHz
Compression mode                    : Lossy
Stream size                         : 80.0 MiB (11%)
Alignment                           : Aligned on interleaves
Interleave, duration                : 24 ms (0.60 video frame)
Interleave, preload duration        : 142 ms
Writing library                     : LAME3.90.
Encoding settings                   : -m j -V 4 -q 2 -lowpass 17.6 --abr 128

